<?xml version="1.0" encoding="UTF-8"?>
<svg id="Capa_1" data-name="Capa 1" xmlns="http://www.w3.org/2000/svg" viewBox="0 0 30 30">
  <defs>
    <style>
      .cls-1, .cls-2 {
        fill: none;
      }

      .cls-1, .cls-3 {
        stroke-width: 0px;
      }

      .cls-2 {
        stroke: #4c4c4c;
        stroke-linecap: round;
        stroke-miterlimit: 10;
      }

      .cls-3 {
        fill: #4c4c4c;
      }
    </style>
  </defs>
  <path class="cls-3" d="M7.51,14.68c.47-.27.91-.52,1.33-.79.12-.08.2-.25.24-.4.1-.33.17-.67.25-1,.08-.31.24-.56.61-.45.33.1.37.36.28.66-.09.33-.16.67-.26,1.06.34.09.67.18.99.27.32.09.63.21.51.62-.11.35-.41.4-.71.26-1.08-.52-1.94-.06-2.8.65.48.27.94.56,1.43.78.17.07.42-.02.62-.06.25-.05.49-.13.73-.21.32-.1.65-.13.76.26.12.4-.19.53-.52.61-.31.08-.62.18-.98.28.1.39.26.75.28,1.11.01.21-.2.43-.31.64-.18-.14-.37-.26-.55-.41-.05-.04-.05-.13-.06-.21-.07-1.16-.9-1.59-1.88-1.96-.01.9-.27,1.83.69,2.44.12.08.21.2.31.3.22.22.33.51.04.69-.15.1-.49.06-.65-.05-.29-.21-.5-.52-.79-.83-.32.32-.59.58-.85.85-.22.22-.46.32-.71.08-.25-.25-.16-.49.06-.71.03-.03.05-.06.08-.08.98-.66,1-1.62.81-2.72-.48.29-.96.54-1.39.86-.15.11-.19.37-.26.57-.09.28-.1.59-.23.83-.1.18-.35.41-.52.4-.33,0-.42-.3-.35-.61.08-.35.18-.7.28-1.11-.37-.1-.73-.19-1.09-.29-.29-.08-.56-.26-.41-.57.08-.17.41-.22.63-.31.06-.02.15.01.21.04,1.06.54,1.85-.04,2.67-.66-.48-.27-.91-.53-1.36-.76-.14-.07-.35-.05-.52-.02-.32.06-.63.16-.94.26-.31.1-.61.1-.72-.25-.13-.4.17-.54.49-.63.31-.09.62-.17.99-.27-.1-.38-.2-.72-.29-1.07-.08-.29-.06-.57.28-.66.33-.1.51.09.59.4,0,.04.03.07.03.1.05,1.19.89,1.68,1.92,2.06,0-.57.07-1.14-.05-1.67-.07-.31-.45-.54-.68-.81-.24-.28-.76-.53-.32-.97.4-.4.67.06.93.31.17.16.31.36.55.65.31-.36.55-.65.8-.92.21-.23.51-.32.69-.05.1.15-.02.44-.04.67,0,.03-.04.06-.07.08-.97.66-1.05,1.6-.81,2.72Z"/>
  <path class="cls-2" d="M19.95,15.98c0,1.96-.03,3.93-.04,5.89,0,1-.01,1.99,0,2.99,0,.79-.11,1.64.51,2.24.5.48,1.46.65,2.08.32.56-.29.78-.96.95-1.57"/>
  <path class="cls-2" d="M13.4,15.98c0,1.96.03,3.93.04,5.89,0,1,.01,1.99,0,2.99,0,.79.11,1.64-.51,2.24-.5.48-1.46.65-2.08.32-.56-.29-.78-.96-.95-1.57"/>
  <line class="cls-2" x1="16.5" y1="15.98" x2="16.5" y2="23.36"/>
  <g>
    <path class="cls-1" d="M7,3.67v1.66c0,.37.3.67.67.67h14.66c.37,0,.67-.3.67-.67v-1.66c0-.06.01-.12.03-.17H6.97c.02.05.03.11.03.17Z"/>
    <path class="cls-3" d="M26.88,2.5H3.12c-.89,0-1.62.73-1.62,1.62v5.1c.07-.06.14-.13.22-.18.2-.13.41-.25.61-.37.02-.01.04-.02.06-.04.04-.03.07-.04.11-.06v-4.45c0-.34.28-.62.62-.62h2.92c-.02.05-.03.11-.03.17v1.66c0,.92.75,1.67,1.67,1.67h14.66c.92,0,1.67-.75,1.67-1.67v-1.66c0-.06-.01-.12-.03-.17h2.92c.34,0,.62.28.62.62v8.77c0,.34-.28.62-.62.62h-10.89c.11.33.18.66.2,1h10.69c.89,0,1.62-.73,1.62-1.62V4.12c0-.89-.72-1.62-1.62-1.62ZM23,3.67v1.66c0,.37-.3.67-.67.67H7.67c-.37,0-.67-.3-.67-.67v-1.66c0-.06-.01-.12-.03-.17h16.07c-.02.05-.03.11-.03.17Z"/>
  </g>
</svg>