<?xml version="1.0" encoding="UTF-8"?>
<svg id="Capa_1" data-name="Capa 1" xmlns="http://www.w3.org/2000/svg" viewBox="0 0 30 30">
  <defs>
    <style>
      .cls-1 {
        fill: #fff;
      }

      .cls-1, .cls-2 {
        stroke-width: 0px;
      }

      .cls-2 {
        fill: #4c4c4c;
      }
    </style>
  </defs>
  <path class="cls-2" d="M5.56,0c.41.11.83.18,1.23.33.69.25,1.27.68,1.73,1.25.13.16.26.2.45.18,1.12-.11,2.1.22,2.93.96.36.32.39.66.05,1.01-1.44,1.47-2.88,2.94-4.33,4.4-.35.36-.7.33-1.02-.05-.78-.94-1.08-2.01-.88-3.22.04-.22.09-.41-.16-.55-.26-.14-.58-.18-.76.02-.19.22-.32.5-.43.77-.07.19-.08.42-.08.63-.01,3.2-.02,6.39-.03,9.59,0,.08,0,.15.01.27.48,0,.96,0,1.43,0,.15,0,.3,0,.43.04.23.08.36.26.38.5,0,.11.01.21.01.32,0,4.2,0,8.4,0,12.6,0,.71-.17.88-.88.88-1.53,0-3.06,0-4.59,0-.5,0-.72-.21-.72-.71,0-8.02-.01-16.04.02-24.06,0-1.88.77-3.44,2.41-4.48C3.37.3,4.05.14,4.74,0,5.01,0,5.28,0,5.56,0ZM5.34,28.76v-11.98H1.54v11.97h1.04c0-.67,0-1.32,0-1.98,0-.56.19-.83.59-.83.39,0,.57.27.57.81,0,.66,0,1.32,0,1.99h1.59ZM7.48,2.17c-1.03-1.18-3-1.34-4.33-.34-1.1.83-1.61,1.97-1.63,3.31-.03,3.41-.01,6.82-.01,10.23,0,.06.01.13.02.19h1.55c0-.14,0-.26,0-.37,0-3.13.01-6.26.03-9.38,0-.4.07-.82.17-1.21.24-.93.95-1.56,1.81-1.57.4,0,.8.16,1.2.24.37-.35.78-.73,1.19-1.11ZM10.76,3.34c-.98-.68-2.34-.53-3.18.29-.82.8-.99,2.29-.42,3.14,1.18-1.13,2.38-2.27,3.6-3.44Z"/>
  <path class="cls-2" d="M18.55,29.19c-1.54,0-3.08,0-4.62,0-.6,0-.79-.18-.79-.78,0-1.04-.02-2.09-.01-3.13,0-.22-.06-.38-.23-.53-1.5-1.42-2.99-2.85-4.48-4.29-.24-.24-.46-.51-.64-.79-.51-.78-.48-1.59,0-2.36.23-.37.51-.71.79-1.05,1.16-1.35,2.33-2.7,3.5-4.05.5-.57,1.07-1.02,1.84-1.16.09-.02.17-.1.25-.17.27-.21.55-.43.81-.65.09-.07.19-.16.22-.26.44-1.46,1.99-2.06,3.3-1.29.09.06.26.06.36.01,1.25-.55,2.65.08,3.05,1.39.03.11.13.2.21.29.42.45.95.67,1.56.83.4.1.79.4,1.07.72,1.43,1.61,2.84,3.24,4.24,4.88.39.46.69.99.71,1.63.03.84-.42,1.45-.97,1.99-1.47,1.44-2.96,2.85-4.45,4.27-.2.19-.29.37-.29.65.02,1.02,0,2.05,0,3.07,0,.58-.19.77-.77.77-1.56,0-3.12,0-4.68,0ZM23.25,12.28c-.18.43-.35.82-.51,1.21-.03.07,0,.18.03.26.18.42.36.84.55,1.25.06.14.12.29.22.4.73.86,1.48,1.71,2.22,2.57.38.44.36.74-.1,1.11-1.26,1.03-2.52,2.06-3.78,3.09-.2.16-.41.24-.67.24-1.77,0-3.55,0-5.32,0-.26,0-.47-.08-.67-.24-1.25-1.03-2.5-2.05-3.75-3.07-.48-.4-.51-.68-.1-1.15.75-.87,1.51-1.74,2.26-2.61.08-.09.14-.21.19-.32.15-.36.3-.72.44-1.08.03-.08.04-.22-.01-.28-.31-.37-.48-.79-.54-1.37-.27.25-.52.44-.72.67-1.17,1.33-2.33,2.68-3.48,4.02-.24.28-.48.57-.68.87-.33.49-.32.86.04,1.34.13.18.28.35.44.51,1.55,1.49,3.11,2.98,4.67,4.47.22.21.32.44.32.75,0,.93,0,1.85.01,2.78,0,.1,0,.21.01.31h8.51c0-1.03,0-2.05,0-3.06,0-.32.1-.57.34-.8,1.41-1.33,2.81-2.67,4.21-4.01.28-.27.55-.55.8-.85.46-.55.49-.94.07-1.5-.42-.56-.88-1.09-1.34-1.62-.93-1.09-1.87-2.17-2.81-3.25-.25-.29-.52-.55-.85-.63ZM21.74,14.28c-.62.18-1.2.17-1.77-.1-.07-.03-.19-.01-.27.02-.78.33-1.51.27-2.22-.19-.07-.05-.23-.05-.3,0-.48.33-1.01.46-1.58.38-.18-.02-.26.03-.34.18-1.31,2.5.44,5.46,3.26,5.5,1.49.02,2.63-.66,3.35-1.96.7-1.28.59-2.56-.14-3.83ZM14.9,12.23c0,.44.27.82.68.96.44.15.88,0,1.18-.41.39-.54.76-.54,1.15,0,.38.53.97.62,1.5.24.37-.27.54-.27.92,0,.54.38,1.2.27,1.52-.27.31-.53.1-1.17-.51-1.45-.32-.14-.49-.35-.51-.71-.03-.41-.26-.69-.63-.84-.36-.15-.71-.09-1.01.15-.49.39-.67.37-1.11-.07-.31-.3-.67-.39-1.07-.25-.42.15-.63.47-.67.9-.04.52-.13.62-.64.75-.48.12-.79.51-.79.99ZM12.52,18.43c1.13.93,2.24,1.83,3.35,2.73.04.03.1.07.15.07.58,0,1.15,0,1.73,0-2.2-.54-3.56-1.9-4.06-4.16-.4.46-.78.9-1.17,1.35ZM23.47,17.11c-.52,2.25-1.87,3.6-4.08,4.11.51.02,1.02.03,1.53.01.15,0,.32-.07.44-.16,1.02-.82,2.03-1.65,3.04-2.47.07-.05.14-.1.22-.16-.4-.46-.76-.88-1.15-1.33Z"/>
  <path class="cls-2" d="M13.11,6.56c-.19-.08-.31-.11-.41-.18-.22-.16-.43-.33-.63-.52-.25-.24-.27-.57-.06-.81.19-.23.52-.28.79-.08.25.18.48.39.7.61.17.17.2.42.06.62-.11.16-.3.25-.45.37Z"/>
  <path class="cls-2" d="M9.17,8.19c.03-.45.45-.73.8-.53.24.14.46.33.65.54.17.18.14.41.02.63-.13.23-.34.32-.57.26-.39-.1-.68-.37-.88-.72-.04-.06-.03-.15-.03-.18Z"/>
  <path class="cls-2" d="M11.16,7.33c.01-.42.45-.7.81-.49.24.14.47.33.64.54.27.33.04.82-.38.88-.42.06-1.08-.51-1.07-.93Z"/>
  <path class="cls-1" d="M21.74,14.28c.73,1.27.84,2.55.14,3.83-.71,1.3-1.85,1.98-3.35,1.96-2.83-.04-4.57-3-3.26-5.5.08-.15.16-.21.34-.18.57.07,1.1-.05,1.58-.38.07-.05.22-.04.3,0,.71.47,1.45.53,2.22.19.08-.03.2-.06.27-.02.56.28,1.14.28,1.77.1Z"/>
  <path class="cls-1" d="M12.52,18.43c.39-.45.77-.89,1.17-1.35.5,2.26,1.86,3.62,4.06,4.16-.58,0-1.15,0-1.73,0-.05,0-.11-.03-.15-.07-1.11-.9-2.21-1.81-3.35-2.73Z"/>
  <path class="cls-1" d="M23.47,17.11c.39.45.75.87,1.15,1.33-.08.06-.15.11-.22.16-1.01.83-2.02,1.65-3.04,2.47-.12.09-.29.15-.44.16-.51.02-1.02,0-1.53-.01,2.2-.51,3.56-1.86,4.08-4.11Z"/>
  <path class="cls-2" d="M3.74,24.79c0,.31-.27.58-.57.58-.31,0-.59-.28-.59-.6,0-.33.28-.58.61-.57.32.01.56.27.55.59Z"/>
</svg>