<?xml version="1.0" encoding="UTF-8"?>
<svg id="Capa_1" data-name="Capa 1" xmlns="http://www.w3.org/2000/svg" viewBox="0 0 30 30">
  <defs>
    <style>
      .cls-1 {
        fill: #4c4c4c;
        stroke-width: 0px;
      }
    </style>
  </defs>
  <path class="cls-1" d="M25.78,27.04H4.31c0,.36,0,.72,0,1.08-.02.73-.5,1.35-1.19,1.55-.69.2-1.46-.05-1.83-.67-.16-.27-.28-.62-.29-.93-.02-2.7-.02-5.39,0-8.09,0-1.11.46-2.06,1.28-2.82.18-.17.24-.33.24-.56,0-1.55-.01-3.1,0-4.66,0-1.38.84-2.46,2.12-2.71.42-.08.87-.05,1.31-.07.69-.03,1.37-.03,2.06-.1.29-.03.58-.16.84-.3,1.03-.57,2.03-1.19,3.07-1.73,1.87-.97,3.8-1.03,5.72-.15,1.24.56,2.45,1.19,3.66,1.83.69.37,1.4.52,2.16.51.5,0,1-.03,1.5,0,1.57.07,2.66,1.19,2.67,2.77,0,1.59,0,3.19,0,4.78,0,.2.05.34.2.49.78.77,1.18,1.71,1.19,2.8,0,2.66,0,5.31,0,7.97,0,.95-.68,1.67-1.57,1.68-.93.01-1.62-.67-1.65-1.63-.01-.32,0-.64,0-1.02ZM27.99,22.39c0-.9,0-1.76,0-2.62,0-.21-.07-.43-.14-.64-.43-1.29-1.57-2.06-3.03-2.06-6.54,0-13.08,0-19.63,0-.1,0-.21,0-.31,0-1.35.08-2.48.99-2.79,2.29-.08.34-.09.7-.09,1.05-.01.65,0,1.31,0,1.97h26ZM6.02,15.99c0-.87,0-1.78,0-2.68,0-.85.47-1.32,1.31-1.32,1.59,0,3.19,0,4.78,0,.82,0,1.3.48,1.31,1.3,0,.81,0,1.62,0,2.44,0,.11,0,.22,0,.33h3.15c0-.13,0-.24,0-.35,0-.85,0-1.71,0-2.56,0-.9.48-1.37,1.37-1.37,1.55,0,3.1,0,4.66,0,.9,0,1.37.47,1.38,1.36,0,.86,0,1.73,0,2.59,0,.11.01.22.01.27.9.11,1.76.21,2.63.31,0-1.38,0-2.82,0-4.25,0-1.14-.69-1.83-1.83-1.84-.67,0-1.33,0-2-.02-.57-.02-1.11-.16-1.62-.42-1.25-.64-2.5-1.28-3.76-1.89-1.78-.86-3.54-.8-5.26.16-.9.5-1.79,1.02-2.68,1.53-.68.4-1.41.6-2.2.59-.64,0-1.27,0-1.91,0-1.17,0-1.84.68-1.84,1.85,0,1.34,0,2.69,0,4.03,0,.09,0,.18.01.23.83-.09,1.63-.19,2.49-.29ZM1.99,23.42c0,1.59,0,3.14,0,4.69,0,.36.3.63.65.63.35,0,.64-.26.66-.62.02-.25,0-.5,0-.75,0-1,.36-1.36,1.35-1.36,6.09,0,12.17,0,18.26,0,.91,0,1.81,0,2.72,0,.71,0,1.12.42,1.14,1.13,0,.3,0,.6,0,.91,0,.27.11.48.37.6.43.19.85-.12.85-.64,0-1.45,0-2.9,0-4.34,0-.08-.01-.16-.02-.25H1.99ZM22.97,16.06c0-1.04,0-2.05,0-3.05,0-.23-.18-.24-.36-.24-1.56,0-3.12,0-4.68,0-.28,0-.36.11-.36.38,0,.9,0,1.81,0,2.71,0,.07.02.14.03.21h5.37ZM7.02,16.05h5.4c0-.95,0-1.89,0-2.82,0-.19-.11-.25-.29-.25-1.6,0-3.21,0-4.81,0-.19,0-.3.06-.3.27,0,.92,0,1.85,0,2.8Z"/>
</svg>