<?xml version="1.0" encoding="UTF-8"?>
<svg id="Capa_1" data-name="Capa 1" xmlns="http://www.w3.org/2000/svg" viewBox="0 0 30 30">
  <defs>
    <style>
      .cls-1 {
        fill: none;
        stroke: #303030;
        stroke-miterlimit: 10;
        stroke-width: .75px;
      }

      .cls-2 {
        fill: #303030;
        stroke-width: 0px;
      }
    </style>
  </defs>
  <path class="cls-2" d="M24.71,26h-.46v-3.11c.44-.19.75-.63.75-1.14s-.31-.95-.75-1.14v-3.61h1.32v-1H5v1h1.25v3.61c-.44.19-.75.63-.75,1.14s.31.95.75,1.14v3.11h-.96c-.71,0-1.29.58-1.29,1.29,0,2.71,1.5,2.71,2.71,2.71h16.57c1.21,0,2.71,0,2.71-2.71,0-.71-.58-1.29-1.29-1.29ZM23.25,20.61c-.44.19-.75.63-.75,1.14s.31.95.75,1.14v3.11h-3v-3.11c.44-.19.75-.63.75-1.14s-.31-.95-.75-1.14v-3.61h3v3.61ZM11.25,20.61v-3.61h3.25v3.61c-.44.19-.75.63-.75,1.14s.31.95.75,1.14v3.11h-3.25v-3.11c.44-.19.75-.63.75-1.14s-.31-.95-.75-1.14ZM15.5,22.89c.44-.19.75-.63.75-1.14s-.31-.95-.75-1.14v-3.61h3.75v3.61c-.44.19-.75.63-.75,1.14s.31.95.75,1.14v3.11h-3.75v-3.11ZM7.25,22.89c.44-.19.75-.63.75-1.14s-.31-.95-.75-1.14v-3.61h3v3.61c-.44.19-.75.63-.75,1.14s.31.95.75,1.14v3.11h-3v-3.11ZM23.29,29H6.71c-1.21,0-1.71,0-1.71-1.71,0-.15.13-.29.29-.29h19.43c.16,0,.29.13.29.29,0,1.71-.5,1.71-1.71,1.71Z"/>
  <rect class="cls-2" x="7.5" y="7.49" width="1" height="1.51"/>
  <rect class="cls-2" x="7.5" y="10" width="1" height="5"/>
  <polygon class="cls-2" points="7.5 1.5 7.5 6.5 8.5 6.5 8.5 2.5 14.07 2.5 14.07 15 15.07 15 15.07 2.5 20.5 2.5 20.5 15 21.5 15 21.5 1.5 7.5 1.5"/>
  <line class="cls-1" x1="9.5" y1="8.52" x2="13" y2="5"/>
  <line class="cls-1" x1="9.5" y1="11.52" x2="13" y2="8"/>
  <line class="cls-1" x1="16.5" y1="8.52" x2="20" y2="5"/>
  <line class="cls-1" x1="16.5" y1="11.52" x2="20" y2="8"/>
</svg>