<?xml version="1.0" encoding="UTF-8"?>
<svg id="Capa_1" data-name="Capa 1" xmlns="http://www.w3.org/2000/svg" viewBox="0 0 30 30">
  <defs>
    <style>
      .cls-1 {
        fill: #4c4c4c;
        stroke-width: 0px;
      }
    </style>
  </defs>
  <path class="cls-1" d="M3,29.16h2.38c0-.37,0-.67,0-.98,0-8.37,0-16.75,0-25.12,0-1.12.03-1.15,1.24-1.15,5.33,0,10.66,0,15.98,0,1.09,0,1.15.06,1.15,1.07,0,8.37,0,16.75,0,25.12v1.06h4.25v.84c-.3.06-.6.11-.91.11-8.03,0-16.06,0-24.09,0v-.94ZM20.67,4.8h-12.17v24.3h12.17V4.8ZM22.66,29.15V2.91H6.46v26.27c.34-.02.61-.03.96-.04,0-.36,0-.67,0-.97,0-7.77,0-15.55,0-23.32,0-.97.06-1.03,1.1-1.03,3.97,0,7.94,0,11.9,0q1.28,0,1.28,1.18c0,7.75,0,15.5,0,23.25v.92h.95Z"/>
  <path class="cls-1" d="M19.67,10.61c0,1.36-.02,2.71,0,4.07.01.64-.26.88-.95.88-2.78-.02-5.55-.02-8.33,0-.69,0-.96-.24-.95-.88.02-2.71.02-5.42,0-8.13,0-.64.25-.88.95-.88,2.78.02,5.55.02,8.33,0,.7,0,.96.24.95.88-.03,1.35,0,2.71,0,4.07ZM10.52,14.55h8.05v-7.88h-8.05v7.88Z"/>
  <path class="cls-1" d="M19.67,23.37c0,1.33-.02,2.66,0,3.99.01.64-.25.88-.95.88-2.78-.02-5.55-.02-8.33,0-.7,0-.96-.23-.95-.87.02-2.71.02-5.42,0-8.13,0-.64.25-.88.95-.88,2.78.02,5.55.02,8.33,0,.69,0,.97.23.95.87-.03,1.38,0,2.76,0,4.14ZM10.55,19.33v7.92h8.04v-7.92h-8.04Z"/>
  <path class="cls-1" d="M11.01,17.41c-.34,0-.69.05-1.01-.02-.2-.04-.46-.27-.47-.43,0-.15.27-.43.44-.44.67-.05,1.35-.05,2.02,0,.18.01.34.28.5.43-.19.16-.35.4-.57.46-.28.08-.61.02-.92.02,0,0,0,0,0,0Z"/>
</svg>