<?xml version="1.0" encoding="UTF-8"?>
<svg id="Capa_1" data-name="Capa 1" xmlns="http://www.w3.org/2000/svg" viewBox="0 0 30 30">
  <defs>
    <style>
      .cls-1 {
        fill: #4c4c4c;
        stroke-width: 0px;
      }
    </style>
  </defs>
  <path class="cls-1" d="M26.97,15.13c0,1.67,0,3.33,0,5-.01,3.78-2.8,6.59-6.57,6.59-3.38,0-6.76,0-10.14,0-3.75,0-6.56-2.81-6.57-6.55,0-3.39,0-6.79,0-10.18.01-3.74,2.82-6.54,6.57-6.55,3.38,0,6.76,0,10.14,0,3.77,0,6.56,2.82,6.57,6.59,0,1.7,0,3.39,0,5.09ZM24.89,15.1c0-1.68,0-3.36,0-5.05,0-2.67-1.85-4.52-4.51-4.53-3.38,0-6.76,0-10.14,0-2.64,0-4.48,1.86-4.49,4.51,0,3.36,0,6.73,0,10.09,0,2.69,1.85,4.53,4.55,4.53,3.35,0,6.7,0,10.05,0,2.69,0,4.53-1.85,4.53-4.55,0-1.67,0-3.33,0-5Z"/>
  <path class="cls-1" d="M15.32,21.09c-3.31,0-6.02-2.72-6-6.02.02-3.29,2.71-5.98,6-5.97,3.31,0,6.02,2.72,6,6.03-.02,3.29-2.71,5.98-6,5.97ZM15.34,11.16c-2.18,0-3.94,1.75-3.94,3.92,0,2.16,1.73,3.91,3.89,3.92,2.18.01,3.95-1.73,3.96-3.9,0-2.18-1.74-3.94-3.91-3.95Z"/>
  <path class="cls-1" d="M23.08,8.87c0,.83-.68,1.5-1.51,1.49-.82,0-1.5-.68-1.51-1.5,0-.84.69-1.53,1.54-1.51.83.01,1.49.69,1.48,1.52Z"/>
</svg>