<?xml version="1.0" encoding="UTF-8"?>
<svg id="Capa_1" data-name="Capa 1" xmlns="http://www.w3.org/2000/svg" viewBox="0 0 30 30">
  <defs>
    <style>
      .cls-1 {
        fill: #fff;
      }

      .cls-1, .cls-2 {
        stroke-width: 0px;
      }

      .cls-2 {
        fill: #4c4c4c;
      }
    </style>
  </defs>
  <path class="cls-2" d="M0,18.3c.15-.26.38-.36.68-.35.43.02.85,0,1.31,0,0-.35,0-.66,0-.98,0-.98.04-1.01,1.03-1.01.31,0,.62,0,.95,0v.99h-.96v.99h1.97v-1.96h1.01v1.95h1.99v-.97h-.97v-.99c.51,0,1.01-.01,1.51,0,.31.01.47.22.48.58,0,.46,0,.91,0,1.38h10.99v-.36c0-3.61,0-7.23,0-10.84,0-.62.14-.75.76-.75,2.84,0,5.68,0,8.52,0,.31,0,.55.07.72.34v23.27c-.15.27-.37.36-.68.36-9.55,0-19.1,0-28.65,0-.31,0-.53-.09-.68-.36v-11.29ZM21.02,13.99v14.93h7.97v-14.93h-7.97ZM28.99,12.96v-5.96h-7.97v5.96h7.97ZM1.01,28.93h8.98v-6.94H1.01v6.94ZM14.99,21.99h-3.96v6.93h3.96v-6.93ZM19.98,21.98h-3.97v6.95h3.97v-6.95ZM19.98,20.94v-1.97h-8.95v1.97h8.95ZM1.01,20.93h8.96v-1.96H1.01v1.96Z"/>
  <path class="cls-2" d="M7.68,0c.27.17.33.42.33.72-.01,1.3,0,2.59,0,3.89,0,.11,0,.23,0,.33.05.03.07.04.08.04.48-.07.81.16,1.12.49.5.54,1.03,1.04,1.55,1.55.18.18.26.37.26.62-.01.42,0,.84,0,1.26,0,.39-.19.57-.58.57-3.28,0-6.56,0-9.84,0-.28,0-.46-.13-.58-.36C0,8.52,0,7.91,0,7.31c.59-.6,1.19-1.18,1.75-1.79.33-.36.67-.62,1.18-.55.01,0,.03-.02.06-.05,0-.09,0-.2,0-.3,0-1.3,0-2.61,0-3.91C2.99.4,3.07.16,3.34,0h4.34ZM9.97,8.47c.09-.48.03-.86-.37-1.19-.41-.34-.76-.76-1.15-1.12-.1-.09-.27-.17-.4-.17-1.7-.01-3.4-.01-5.1,0-.14,0-.32.08-.43.18-.4.37-.75.8-1.17,1.14-.4.33-.39.71-.34,1.15h8.95ZM6.99,1.02h-2.97v3.94h2.97V1.02Z"/>
  <path class="cls-2" d="M14,0c0,3.1,0,6.2,0,9.3,0,.18.05.27.23.34,1.14.46,1.39,1.49,1.25,2.47-.03.22-.21.36-.44.36-1.03,0-2.05,0-3.08,0-.27,0-.44-.2-.46-.48-.09-1.08.27-1.97,1.36-2.39.07-.03.12-.13.14-.21.02-.07,0-.15,0-.23,0-3.05,0-6.1,0-9.15h1ZM14.48,11.46c-.02-.59-.47-1-1.01-.98-.54.02-.96.47-.92.98h1.94Z"/>
  <path class="cls-1" d="M3.34,0c-.27.16-.35.4-.35.71.01,1.3,0,2.61,0,3.91,0,.11,0,.21,0,.3-.03.03-.05.05-.06.05-.51-.07-.85.19-1.18.55-.57.61-1.17,1.2-1.75,1.79C0,4.88,0,2.45,0,0h3.34Z"/>
  <path class="cls-2" d="M17.52,0c0,.59-.01,1.19-.01,1.78,0,1.18,0,2.36,0,3.54,0,.17.04.25.21.32.97.38,1.51,1.45,1.26,2.46-.06.25-.24.38-.49.38-1,0-1.99,0-2.99,0-.26,0-.43-.14-.49-.39-.21-.8.17-1.78.86-2.25.1-.07.22-.15.33-.18.27-.06.3-.22.3-.47-.01-1.62,0-3.23,0-4.85,0-.12.01-.23.02-.35.33,0,.66,0,1,0ZM17.98,7.47c0-.58-.45-1-1.02-.98-.54.02-.96.46-.93.98h1.95Z"/>
  <path class="cls-1" d="M5.48,27.95c.97,0,1.93,0,2.9,0,.44,0,.63-.18.63-.62,0-1.26,0-2.51,0-3.77,0-.43-.18-.6-.61-.6-1.92,0-3.84,0-5.77,0-.45,0-.62.18-.63.62,0,1.25,0,2.49,0,3.74,0,.46.18.63.64.63.95,0,1.89,0,2.84,0Z"/>
  <path class="cls-2" d="M22.98,17.95h-.96v-1.96h.96v1.96Z"/>
  <path class="cls-2" d="M22.02,9h.96v1.97h-.96v-1.97Z"/>
  <path class="cls-2" d="M5.48,27.95c-.95,0-1.89,0-2.84,0-.46,0-.64-.18-.64-.63,0-1.25,0-2.49,0-3.74,0-.44.18-.62.63-.62,1.92,0,3.84,0,5.77,0,.43,0,.61.17.61.6,0,1.26,0,2.51,0,3.77,0,.44-.19.62-.63.62-.97,0-1.93,0-2.9,0ZM7.98,23.97H3.02v2.96h4.97v-2.96Z"/>
  <path class="cls-2" d="M13.02,24.46h.96v1.96h-.96v-1.96Z"/>
  <path class="cls-2" d="M17.97,26.43h-.96v-1.96h.96v1.96Z"/>
  <path class="cls-2" d="M16.49,19.49v.96h-1.97v-.96h1.97Z"/>
  <path class="cls-2" d="M2.99,19.97c0,.27-.24.5-.51.49-.26-.01-.48-.24-.48-.5,0-.27.23-.5.5-.5.28,0,.49.22.49.5Z"/>
  <path class="cls-2" d="M4.49,19.47c.28,0,.5.21.5.49,0,.28-.22.51-.5.5-.26,0-.48-.22-.5-.48-.01-.27.21-.51.49-.51Z"/>
  <path class="cls-2" d="M6.49,19.47c.28,0,.5.21.5.49,0,.28-.22.51-.49.5-.26,0-.48-.22-.49-.48-.01-.27.21-.51.48-.51Z"/>
  <path class="cls-2" d="M8.51,20.46c-.27,0-.5-.22-.5-.49,0-.27.2-.48.47-.5.28-.01.51.2.52.47.01.27-.21.51-.48.52Z"/>
</svg>