<?xml version="1.0" encoding="UTF-8"?>
<svg id="Capa_1" data-name="Capa 1" xmlns="http://www.w3.org/2000/svg" viewBox="0 0 30 30">
  <defs>
    <style>
      .cls-1 {
        stroke-linecap: round;
      }

      .cls-1, .cls-2 {
        fill: none;
        stroke: #4c4c4c;
        stroke-miterlimit: 10;
      }
    </style>
  </defs>
  <path class="cls-2" d="M23.16,29.5H7.84c-2.39,0-4.34-1.95-4.34-4.34V6.7s0-.85,0-.85c0-2.39,1.95-4.34,4.34-4.34h15.31c2.39,0,4.34,1.95,4.34,4.34v.57s0,18.74,0,18.74c0,2.39-1.95,4.34-4.34,4.34Z"/>
  <line class="cls-2" x1="3.5" y1="6.7" x2="27.5" y2="6.7"/>
  <circle class="cls-2" cx="15" cy="19.5" r="7"/>
  <circle class="cls-2" cx="15" cy="19.5" r="5"/>
  <line class="cls-2" x1="11.93" y1="1.5" x2="11.93" y2="6.7"/>
  <circle class="cls-2" cx="14.5" cy="4.5" r="1"/>
  <line class="cls-1" x1="17.59" y1="4.5" x2="19.88" y2="4.5"/>
  <line class="cls-1" x1="22.59" y1="4.5" x2="24.88" y2="4.5"/>
</svg>