<?xml version="1.0" encoding="UTF-8"?>
<svg id="Capa_1" data-name="Capa 1" xmlns="http://www.w3.org/2000/svg" viewBox="0 0 30 30">
  <defs>
    <style>
      .cls-1 {
        fill: #414141;
      }

      .cls-1, .cls-2 {
        stroke-width: 0px;
      }

      .cls-2 {
        fill: #4c4c4c;
      }
    </style>
  </defs>
  <g>
    <path class="cls-2" d="M25.84,26c-.22-.12-.47-.22-.67-.38-.34-.28-.44-.68-.44-1.12,0-2.58,0-5.17,0-7.75,0-.09.02-.19-.02-.26-.04-.07-.13-.16-.2-.16-.07,0-.16.09-.2.17-.04.07-.02.18-.02.26,0,2.57,0,5.15,0,7.72,0,.72-.35,1.23-.96,1.42-.84.26-1.7-.35-1.75-1.22,0-.09,0-.18,0-.27,0-4.59,0-9.18,0-13.77,0-.17.05-.41-.21-.41-.26,0-.22.23-.22.4,0,1.89,0,3.78,0,5.68,0,.63-.48,1.04-1.07.91-.41-.09-.69-.44-.69-.91,0-1.05,0-2.1,0-3.14,0-1.3,0-2.6,0-3.9,0-1.4.92-2.32,2.32-2.33,1.87,0,3.74,0,5.61,0,1.38,0,2.3.93,2.31,2.31,0,2.34,0,4.68,0,7.02,0,.65-.47,1.07-1.06.95-.4-.08-.69-.42-.69-.85,0-.71,0-1.41,0-2.12,0-1.2,0-2.4,0-3.61,0-.07.02-.16,0-.22-.05-.08-.14-.18-.23-.2-.05,0-.15.12-.19.2-.03.07,0,.16,0,.24,0,4.55,0,9.1,0,13.64,0,.99-.22,1.32-1.12,1.67h-.49Z"/>
    <path class="cls-2" d="M24.52,5.97c-1.36,0-2.47-1.11-2.46-2.47,0-1.36,1.11-2.46,2.47-2.46,1.36,0,2.47,1.11,2.46,2.47,0,1.36-1.11,2.46-2.47,2.46Z"/>
  </g>
  <g>
    <path class="cls-2" d="M6.84,26c-.22-.12-.47-.22-.67-.38-.34-.28-.44-.68-.44-1.12,0-2.58,0-5.17,0-7.75,0-.09.02-.19-.02-.26-.04-.07-.13-.16-.2-.16-.07,0-.16.09-.2.17-.04.07-.02.18-.02.26,0,2.57,0,5.15,0,7.72,0,.72-.35,1.23-.96,1.42-.84.26-1.7-.35-1.75-1.22,0-.09,0-.18,0-.27,0-4.59,0-9.18,0-13.77,0-.17.05-.41-.21-.41-.26,0-.22.23-.22.4,0,1.89,0,3.78,0,5.68,0,.63-.48,1.04-1.07.91-.41-.09-.69-.44-.69-.91,0-1.05,0-2.1,0-3.14,0-1.3,0-2.6,0-3.9,0-1.4.92-2.32,2.32-2.33,1.87,0,3.74,0,5.61,0,1.38,0,2.3.93,2.31,2.31,0,2.34,0,4.68,0,7.02,0,.65-.47,1.07-1.06.95-.4-.08-.69-.42-.69-.85,0-.71,0-1.41,0-2.12,0-1.2,0-2.4,0-3.61,0-.07.02-.16,0-.22-.05-.08-.14-.18-.23-.2-.05,0-.15.12-.19.2-.03.07,0,.16,0,.24,0,4.55,0,9.1,0,13.64,0,.99-.22,1.32-1.12,1.67h-.49Z"/>
    <path class="cls-2" d="M5.52,5.97c-1.36,0-2.47-1.11-2.46-2.47,0-1.36,1.11-2.46,2.47-2.46,1.36,0,2.47,1.11,2.46,2.47,0,1.36-1.11,2.46-2.47,2.46Z"/>
  </g>
  <g>
    <path class="cls-1" d="M16.45,30c-.24-.13-.51-.23-.72-.41-.37-.3-.47-.74-.47-1.21,0-2.79,0-5.58,0-8.37,0-.1.02-.21-.02-.29-.04-.08-.14-.18-.21-.18-.07,0-.17.1-.21.18-.04.08-.02.19-.02.29,0,2.78,0,5.56,0,8.34,0,.78-.38,1.33-1.04,1.53-.91.28-1.84-.37-1.89-1.32,0-.1,0-.19,0-.29,0-4.96,0-9.91,0-14.87,0-.19.06-.44-.23-.45-.28,0-.24.25-.24.44,0,2.04,0,4.09,0,6.13,0,.68-.52,1.12-1.15.99-.44-.09-.74-.48-.74-.98,0-1.13,0-2.26,0-3.39,0-1.4,0-2.81,0-4.21,0-1.51.99-2.51,2.5-2.51,2.02,0,4.04,0,6.05,0,1.49,0,2.49,1,2.49,2.5,0,2.53,0,5.05,0,7.58,0,.7-.51,1.15-1.15,1.03-.44-.09-.74-.45-.75-.92,0-.76,0-1.53,0-2.29,0-1.3,0-2.6,0-3.89,0-.08.03-.18-.01-.23-.06-.09-.15-.2-.24-.21-.06,0-.16.13-.2.22-.03.07,0,.17,0,.26,0,4.91,0,9.82,0,14.74,0,1.07-.24,1.43-1.21,1.81h-.53Z"/>
    <path class="cls-1" d="M15.02,8.37c-1.47,0-2.66-1.2-2.66-2.66,0-1.47,1.2-2.66,2.67-2.66,1.47,0,2.66,1.2,2.66,2.67,0,1.47-1.2,2.66-2.67,2.66Z"/>
  </g>
</svg>