<?xml version="1.0" encoding="UTF-8"?>
<svg id="Capa_1" data-name="Capa 1" xmlns="http://www.w3.org/2000/svg" viewBox="0 0 30 30">
  <defs>
    <style>
      .cls-1 {
        fill: #4c4c4c;
        stroke-width: 0px;
      }
    </style>
  </defs>
  <path class="cls-1" d="M21.13,26.3h-13.01c0,.71,0,1.41,0,2.11-.01.96-.44,1.39-1.41,1.4-.96.01-1.92,0-2.88,0-1.25,0-1.62-.38-1.62-1.63,0-.22,0-.43,0-.69h1.16v1.09h3.52v-2.31c-1.28,0-2.52,0-3.77,0-1.75,0-2.68-.94-2.69-2.69,0-1.35,0-2.71,0-4.06.01-1.34.75-2.26,2.03-2.66.26-.08.57-.36.66-.61.75-2.13,1.45-4.28,2.17-6.43.45-1.32,1.2-1.87,2.58-1.87,4.51,0,9.01,0,13.52,0,1.33,0,2.11.56,2.54,1.83.72,2.14,1.44,4.29,2.14,6.44.13.38.28.59.72.69,1.27.3,2,1.27,2.02,2.57.02,1.45.01,2.91,0,4.36,0,1-.46,1.72-1.34,2.22-.21.12-.39.45-.42.7-.06.61,0,1.23-.03,1.85-.03.74-.47,1.2-1.21,1.22-1.16.03-2.32.03-3.47,0-.77-.02-1.2-.48-1.22-1.28-.02-.71,0-1.43,0-2.23ZM14.55,25.09c3.87,0,7.73,0,11.6,0,1.07,0,1.48-.41,1.49-1.46,0-1.33,0-2.66,0-3.99,0-1.09-.54-1.64-1.63-1.64-7.58,0-15.16,0-22.75,0-1.09,0-1.63.54-1.64,1.64,0,1.28,0,2.56,0,3.84,0,1.25.37,1.61,1.64,1.61,3.77,0,7.53,0,11.3,0ZM25.03,16.79c-.58-1.73-1.12-3.39-1.7-5.03-.05-.14-.38-.26-.58-.26-5.42-.01-10.84,0-16.26-.02-.45,0-.59.19-.71.56-.37,1.17-.77,2.34-1.16,3.5-.13.4-.25.81-.38,1.26h20.78ZM22.8,10.27c-.1-.76-.52-1.14-1.23-1.14-4.63-.01-9.26-.01-13.89,0-.71,0-1.13.39-1.24,1.14h16.36ZM25.82,28.61v-2.3h-3.46v2.3h3.46Z"/>
  <path class="cls-1" d="M20.52,19.81v1.08h-11.76v-1.08h11.76Z"/>
  <path class="cls-1" d="M20.49,23.28h-11.74v-1.1h11.74v1.1Z"/>
  <path class="cls-1" d="M7.52,21.51c0,1.29-1.03,2.36-2.32,2.38-1.32.02-2.41-1.06-2.4-2.38,0-1.29,1.07-2.34,2.36-2.35,1.28,0,2.36,1.06,2.37,2.34ZM6.34,21.51c-.01-.63-.55-1.16-1.18-1.15-.63,0-1.16.53-1.17,1.17,0,.66.56,1.22,1.22,1.19.63-.03,1.15-.57,1.14-1.2Z"/>
  <path class="cls-1" d="M26.45,21.51c.01,1.29-1.03,2.37-2.31,2.39-1.32.03-2.41-1.05-2.41-2.37,0-1.29,1.06-2.35,2.35-2.36,1.28-.01,2.36,1.05,2.37,2.33ZM25.26,21.52c0-.63-.53-1.16-1.17-1.17-.63,0-1.17.52-1.18,1.15-.01.66.54,1.22,1.21,1.2.63-.02,1.15-.56,1.15-1.19Z"/>
</svg>