<?xml version="1.0" encoding="UTF-8"?>
<svg id="Capa_1" data-name="Capa 1" xmlns="http://www.w3.org/2000/svg" viewBox="0 0 30 30">
  <defs>
    <style>
      .cls-1 {
        fill: #4c4c4c;
        stroke-width: 0px;
      }
    </style>
  </defs>
  <path class="cls-1" d="M0,16.28c.17-.42.3-.86.53-1.24.37-.59.94-.91,1.59-1.04.05-.54.04-1.07.15-1.58.3-1.44,1.16-2.41,2.49-2.9.65-.24,1.32-.39,1.99-.57.28-.08.5.05.56.29.07.26-.07.47-.36.56-.6.17-1.21.32-1.8.51-1.33.44-2.1,1.57-2.14,3.01-.01.47.07.7.55.89,1,.41,1.51,1.26,1.54,2.37.02.48,0,.97,0,1.46.26-.09.49-.16.71-.26.07-.03.13-.15.13-.23.01-.55.01-1.09,0-1.64-.01-.68.3-1.15.88-1.44.61-.31,1.28-.4,1.95-.46,1.37-.11,2.73-.11,4.09.1.66.1,1.11.28,1.63.65.85-.64,1.85-.71,2.85-.77,1.41-.08,2.81-.09,4.19.25.25.06.5.16.74.29.52.28.79.73.78,1.35,0,.56,0,1.11,0,1.67,0,.15.03.22.19.26.22.05.42.15.67.24,0-.52-.01-1.04,0-1.55.04-1.29,1.03-2.38,2.27-2.51,1.45-.15,2.79.99,2.81,2.5.04,2.45.02,4.89,0,7.34,0,.68-.54,1.21-1.2,1.24-.43.02-.87,0-1.34,0v.33c0,.97,0,1.95,0,2.92,0,.89-.51,1.43-1.37,1.43-7.05,0-14.1,0-21.15,0-.87,0-1.38-.54-1.38-1.45,0-1.06,0-2.12,0-3.23-.31,0-.61-.02-.91,0C.85,25.15.29,24.84,0,24.06,0,21.47,0,18.87,0,16.28ZM4.8,20.11c.25-.01.46-.03.68-.03,3.6,0,7.19,0,10.79,0,.09,0,.19,0,.28,0,.3.04.48.4.3.63-.1.13-.31.22-.48.23-.9.02-1.79.01-2.69.01-2.75,0-5.49,0-8.24,0-.5,0-.95.15-1.17.62-.46.96-.88,1.94-.87,3.05,0,1.2,0,2.4,0,3.6,0,.54.11.65.63.65,2.46,0,4.93,0,7.39,0,4.52,0,9.04,0,13.56,0,.5,0,.62-.12.62-.63,0-.96,0-1.91,0-2.87,0-.09-.01-.19-.02-.3h-.39c-6.74,0-13.48,0-20.21,0-.11,0-.23,0-.34,0-.23-.02-.37-.16-.38-.39-.02-.25.11-.41.35-.46.12-.02.24-.02.37-.02,6.74,0,13.48,0,20.21,0,.12,0,.24,0,.38,0-.01-.14,0-.26-.03-.35-.25-.75-.48-1.51-.79-2.24-.18-.44-.59-.64-1.07-.64-.69,0-1.38,0-2.07,0-1.11,0-2.23,0-3.34,0-.31,0-.5-.17-.5-.43,0-.26.17-.44.45-.44,1.98,0,3.96,0,5.97,0-.13-.29-.24-.61-.41-.9-.24-.41-.78-.66-1.14-.54-.93.31-1.9.43-2.87.48-1.67.08-3.34.05-4.98-.37-.19-.05-.41-.05-.6,0-1.65.42-3.33.48-5,.36-.89-.06-1.78-.21-2.65-.43-.58-.15-1.18.17-1.39.57-.14.27-.24.56-.37.86ZM.85,20.12h0c0,1.18,0,2.36,0,3.53,0,.38.15.53.51.54.33,0,.66,0,.99,0,.17,0,.21-.07.25-.23.13-.56.24-1.12.43-1.65.35-.98.76-1.95,1.13-2.92.04-.11.08-.24.08-.36,0-.81.02-1.62,0-2.42,0-.28-.09-.58-.21-.83-.34-.71-1.13-1.06-1.86-.88-.73.18-1.3.9-1.31,1.7-.01,1.18,0,2.36,0,3.53ZM28.14,20.13c0-1.16,0-2.32,0-3.48,0-1.01-.77-1.82-1.7-1.81-.95,0-1.69.79-1.69,1.81,0,.78,0,1.56,0,2.34,0,.13.03.27.08.39.38.98.78,1.94,1.13,2.92.19.53.31,1.1.43,1.65.04.18.1.24.27.24.3-.01.6,0,.9,0,.44,0,.58-.14.58-.59,0-1.16,0-2.32,0-3.48ZM6.8,17.86c.09.03.15.05.22.07,1.39.35,2.8.4,4.21.33.87-.05,1.74-.21,2.6-.32.19-.02.25-.12.24-.31,0-.57,0-1.15,0-1.72,0-.29-.11-.5-.36-.6-.29-.12-.58-.24-.88-.29-1.36-.24-2.72-.23-4.09-.1-.51.05-1.01.2-1.51.34-.24.07-.44.25-.44.55,0,.68,0,1.36,0,2.06ZM22.2,17.9c0-.7,0-1.34,0-1.99,0-.3-.11-.52-.37-.63-.29-.12-.6-.24-.91-.29-1.34-.23-2.69-.22-4.03-.1-.5.05-1,.19-1.48.33-.34.1-.51.36-.49.75.02.48,0,.95,0,1.43,0,.51-.1.45.45.57,1.7.36,3.41.36,5.12.2.57-.05,1.13-.18,1.7-.27Z"/>
  <path class="cls-1" d="M14.49,8.19c2.81,0,5.6.21,8.33.9.52.13,1.04.28,1.54.48,1.32.54,2.11,1.55,2.4,2.98.02.09.02.17.02.26,0,.24-.13.39-.35.42-.22.04-.39-.07-.46-.29-.04-.11-.04-.23-.07-.34-.26-1.13-.93-1.89-1.99-2.27-1.24-.44-2.53-.7-3.83-.89-2.8-.4-5.62-.46-8.44-.28-.98.06-1.95.2-2.93.31-.33.04-.54-.08-.58-.36-.04-.28.11-.46.45-.51,1.95-.3,3.92-.42,5.89-.41Z"/>
  <path class="cls-1" d="M12.5,11.74c0,.25-.2.46-.45.46-.25,0-.45-.2-.44-.46,0-.26.2-.46.45-.46.24,0,.45.22.45.46Z"/>
  <path class="cls-1" d="M16.95,12.2c-.25,0-.46-.2-.46-.45,0-.25.2-.47.44-.47.25,0,.45.19.46.45,0,.26-.18.47-.44.47Z"/>
  <path class="cls-1" d="M7.97,12.32c0,.25-.19.46-.44.47-.25,0-.45-.19-.46-.45,0-.26.18-.47.43-.47.24,0,.46.2.46.45Z"/>
  <path class="cls-1" d="M21.92,12.33c0,.26-.19.46-.45.46-.25,0-.45-.21-.45-.46,0-.25.21-.46.45-.46.25,0,.45.2.45.46Z"/>
  <path class="cls-1" d="M3.01,17.19c0,.15,0,.29,0,.44-.01.25-.14.4-.38.42-.24.02-.42-.11-.44-.35-.03-.34-.03-.68,0-1.02.02-.24.19-.38.43-.36.24.02.38.16.39.41,0,.15,0,.31,0,.47Z"/>
  <path class="cls-1" d="M25.98,17.18c0-.15,0-.29,0-.44.01-.26.17-.43.4-.44.22-.01.42.15.44.4.02.31.02.62,0,.93-.01.26-.2.41-.43.41-.23,0-.39-.17-.41-.43,0-.15,0-.29,0-.44Z"/>
</svg>