<?xml version="1.0" encoding="UTF-8"?>
<svg id="Capa_1" data-name="Capa 1" xmlns="http://www.w3.org/2000/svg" viewBox="0 0 30 30">
  <defs>
    <style>
      .cls-1 {
        fill: #fff;
      }

      .cls-1, .cls-2 {
        stroke-width: 0px;
      }

      .cls-2 {
        fill: #4c4c4c;
      }
    </style>
  </defs>
  <path class="cls-2" d="M16.2,22.7c-.82.75-1.6,1.47-2.38,2.19-.17.15-.33.31-.5.46-1.41,1.24-3.06.83-3.7-.93-.47-1.31-.92-2.63-1.38-3.94-.34-.97-.66-1.95-1.03-2.9-.08-.2-.31-.42-.51-.49-1.36-.42-2.75-.78-4.11-1.2-.41-.12-.83-.31-1.16-.56-.66-.51-.68-1.34-.04-1.9.28-.25.63-.44.98-.57,7.49-2.87,14.99-5.73,22.49-8.59.26-.1.53-.17.81-.2,1.18-.13,2.1.63,2.02,1.82-.07,1-.31,1.99-.51,2.98-1.07,5.29-2.14,10.59-3.22,15.88-.4,1.95-2.03,2.54-3.59,1.3-1.38-1.09-2.74-2.2-4.15-3.34ZM3.05,14.28v.12c1.36.39,2.73.78,4.09,1.19.34.1.62.07.94-.1,4.18-2.15,8.37-4.29,12.55-6.42.15-.08.31-.17.47-.23.36-.13.7-.07.93.25.23.32.21.65-.03.97-.09.12-.21.23-.32.35-2.48,2.64-4.97,5.28-7.45,7.92-.13.14-.25.28-.43.48.1.07.18.11.25.16,2.43,1.95,4.86,3.91,7.29,5.87.09.08.2.14.3.2.31.18.54.09.67-.23.06-.16.1-.33.14-.5,1.2-5.92,2.4-11.84,3.58-17.77.05-.27,0-.57,0-.85-.28.05-.58.06-.84.16-4.72,1.79-9.43,3.59-14.15,5.39-2.66,1.02-5.33,2.04-7.99,3.06ZM10.75,22.89s.07,0,.1,0c.18-.72.42-1.42.53-2.15.23-1.6.9-2.93,2.16-3.96.19-.15.34-.35.5-.53,1.16-1.24,2.32-2.47,3.49-3.71-.02-.03-.04-.05-.06-.08-2.93,1.5-5.86,2.99-8.8,4.5.71,2.02,1.4,3.98,2.08,5.95ZM12.16,24.14s.06.04.09.06c.89-.82,1.79-1.65,2.71-2.5-.63-.51-1.2-.97-1.83-1.47-.34,1.36-.65,2.64-.97,3.91Z"/>
  <path class="cls-1" d="M12.16,24.14c.31-1.27.63-2.54.97-3.91.63.51,1.2.97,1.83,1.47-.92.85-1.81,1.67-2.71,2.5-.03-.02-.06-.04-.09-.06Z"/>
</svg>