<?xml version="1.0" encoding="UTF-8"?>
<svg id="Capa_1" data-name="Capa 1" xmlns="http://www.w3.org/2000/svg" viewBox="0 0 30 30">
  <defs>
    <style>
      .cls-1 {
        fill: #fff;
      }

      .cls-1, .cls-2 {
        stroke-width: 0px;
      }

      .cls-2 {
        fill: #4c4c4c;
      }
    </style>
  </defs>
  <path class="cls-1" d="M24.05,26H5.95V4h18.1v22ZM12.64,12.54c-.14,0-.23,0-.32,0-4.12.19-7.06,4.23-5.97,8.2.86,3.14,3.91,5.21,7.07,4.79,3.31-.44,5.73-3.14,5.75-6.45.01-2.54,0-5.09,0-7.63,0-.15,0-.31,0-.57,1.25,1.19,2.56,2.03,4.15,2.49,0-1.21,0-2.38,0-3.55,0-.1-.1-.24-.2-.31-1.7-1.16-3.07-2.63-4.14-4.38-.07-.11-.21-.24-.32-.24-.94-.02-1.88-.01-2.87-.01,0,.22,0,.39,0,.57,0,4.53,0,9.05,0,13.58,0,1.69-1.32,3.09-2.97,3.16-1.72.07-3.12-1.19-3.28-2.94-.14-1.59,1.08-3.06,2.73-3.28.13-.02.25-.05.38-.07v-3.35Z"/>
  <path class="cls-2" d="M12.64,12.54v3.35c-.12.02-.25.05-.38.07-1.64.22-2.87,1.7-2.73,3.28.15,1.75,1.56,3.01,3.28,2.94,1.66-.07,2.97-1.46,2.97-3.16,0-4.53,0-9.05,0-13.58,0-.17,0-.35,0-.57.99,0,1.93,0,2.87.01.11,0,.25.13.32.24,1.07,1.75,2.44,3.23,4.14,4.38.09.06.2.2.2.31.01,1.17,0,2.33,0,3.55-1.6-.46-2.91-1.31-4.15-2.49,0,.26,0,.42,0,.57,0,2.54.01,5.09,0,7.63-.02,3.31-2.43,6.02-5.75,6.45-3.16.42-6.21-1.65-7.07-4.79-1.09-3.97,1.85-8.01,5.97-8.2.09,0,.18,0,.32,0Z"/>
</svg>