<?xml version="1.0" encoding="UTF-8"?>
<svg id="Capa_1" data-name="Capa 1" xmlns="http://www.w3.org/2000/svg" viewBox="0 0 30 30">
  <defs>
    <style>
      .cls-1 {
        fill: #4c4c4c;
        stroke-width: 0px;
      }
    </style>
  </defs>
  <path class="cls-1" d="M27.5,2.7H2.5c-1.38,0-2.5,1.12-2.5,2.5v16.6c0,1.38,1.12,2.5,2.5,2.5h11.5v2.7h-5c-.55,0-1,.45-1,1s.45,1,1,1h12c.55,0,1-.45,1-1s-.45-1-1-1h-5v-2.7h11.5c1.38,0,2.5-1.12,2.5-2.5V5.2c0-1.38-1.12-2.5-2.5-2.5ZM28,21.8c0,.27-.23.5-.5.5H2.5c-.27,0-.5-.23-.5-.5V5.2c0-.27.23-.5.5-.5h25c.27,0,.5.23.5.5v16.6Z"/>
  <g>
    <circle class="cls-1" cx="14.98" cy="17.16" r="1.32"/>
    <path class="cls-1" d="M15.22,8.27c1.91.03,3.84.69,5.54,2.02.27.21.32.55.12.79-.19.25-.53.28-.8.07-1.1-.87-2.33-1.43-3.71-1.66-1.85-.31-3.61-.04-5.26.85-.45.24-.86.55-1.29.84-.36.25-.83.06-.88-.37-.02-.2.05-.36.2-.49.88-.71,1.86-1.23,2.93-1.58.94-.31,1.91-.46,3.14-.46Z"/>
    <path class="cls-1" d="M18.87,13.26c-.15,0-.28-.06-.39-.16-.77-.64-1.65-1.05-2.64-1.2-1.58-.24-3.01.15-4.28,1.13-.13.1-.24.21-.41.22-.24.02-.47-.1-.56-.32-.1-.23-.05-.47.15-.64.36-.31.76-.57,1.18-.8,1.04-.55,2.14-.81,3.31-.76,1.5.06,2.83.58,3.98,1.54.2.17.26.4.18.62-.08.22-.28.36-.51.36Z"/>
    <path class="cls-1" d="M17.27,15.24c-.15,0-.28-.06-.39-.16-.59-.55-1.28-.81-2.08-.77-.66.04-1.23.3-1.71.75-.16.15-.33.21-.54.16-.2-.05-.34-.18-.4-.38-.06-.21,0-.4.15-.55.52-.51,1.14-.85,1.85-1,1.33-.27,2.49.07,3.48.99.19.17.23.4.14.62-.09.2-.28.34-.5.34Z"/>
  </g>
</svg>