<?xml version="1.0" encoding="UTF-8"?>
<svg id="Capa_1" data-name="Capa 1" xmlns="http://www.w3.org/2000/svg" viewBox="0 0 30 30">
  <defs>
    <style>
      .cls-1 {
        fill: #4c4c4c;
        stroke-width: 0px;
      }
    </style>
  </defs>
  <circle class="cls-1" cx="15" cy="24" r="3"/>
  <path class="cls-1" d="M15.54,3.75c4.36.06,8.75,1.57,12.61,4.6.61.48.73,1.24.28,1.81-.44.57-1.21.64-1.82.16-2.5-1.97-5.31-3.25-8.44-3.79-4.2-.71-8.21-.09-11.97,1.93-1.02.55-1.97,1.25-2.93,1.91-.83.57-1.89.14-2.01-.85-.06-.45.11-.83.46-1.11,2.01-1.61,4.23-2.81,6.67-3.61,2.14-.7,4.35-1.05,7.15-1.06Z"/>
  <path class="cls-1" d="M23.84,15.12c-.35,0-.64-.14-.9-.36-1.76-1.45-3.76-2.39-6.02-2.73-3.6-.54-6.85.33-9.73,2.58-.28.22-.55.47-.93.51-.55.05-1.06-.23-1.28-.73-.23-.51-.11-1.08.33-1.46.82-.71,1.72-1.31,2.68-1.81,2.36-1.24,4.88-1.84,7.54-1.73,3.41.14,6.44,1.32,9.07,3.5.46.38.6.9.41,1.42-.18.49-.64.82-1.17.82Z"/>
  <path class="cls-1" d="M20.21,19.63c-.35,0-.64-.13-.89-.37-1.33-1.25-2.91-1.85-4.74-1.75-1.51.09-2.81.68-3.9,1.71-.35.33-.75.49-1.23.37-.46-.11-.77-.41-.9-.87-.14-.48-.01-.91.35-1.26,1.19-1.15,2.59-1.93,4.21-2.27,3.02-.62,5.66.16,7.93,2.24.43.39.53.91.32,1.41-.19.47-.64.76-1.14.76Z"/>
</svg>